<svg xmlns="http://www.w3.org/2000/svg" viewBox="0 0 120 40" width="120" height="40">
  <!-- Simplified Amazon Logo -->
  <path fill="#FF9900" d="M38.6,26.1c-10.9,8-26.8,12.2-40.5,12.2c-19.1,0-36.4-7.1-49.4-18.8c-1-0.9-0.1-2.2,1.1-1.5
  c13.8,8,30.8,12.8,48.4,12.8c11.9,0,24.9-2.5,36.9-7.6C37.2,22.2,40.5,24.5,38.6,26.1z"/>
  <path fill="#FF9900" d="M42.6,21.4c-1.4-1.8-9.2-0.8-12.7-0.4c-1.1,0.1-1.2-0.8-0.3-1.5c6.2-4.4,16.4-3.1,17.6-1.6
  c1.2,1.5-0.3,11.8-6.2,16.7c-0.9,0.8-1.8,0.4-1.4-0.6C41.1,29.9,44,23.2,42.6,21.4z"/>
  <path fill="#000000" d="M35.9,11.2V8.7c0-0.6,0.5-1,1-1h17.8c0.6,0,1,0.5,1,1v2.1c0,0.6-0.5,1.1-1.1,2.1l-9.2,13.1
  c3.4-0.1,7-0.4,10.1,0.7c0.7,0.2,0.9,0.8,0.9,1.3v2.6c0,0.6-0.6,1.2-1.2,0.9c-5.1-2.7-11.9-3-17.6,0c-0.6,0.3-1.2-0.3-1.2-0.9
  v-2.5c0-0.6,0-1.7,0.7-2.7l10.7-15.3h-9.3C36.3,12.2,35.9,11.8,35.9,11.2z"/>
  <path fill="#000000" d="M12.4,23.4h-3.1c-0.3,0-0.5-0.2-0.5-0.5V8.6c0-0.3,0.3-0.6,0.6-0.6h2.9c0.3,0,0.5,0.2,0.6,0.5v1.9h0.1
  c0.8-2,2.2-2.9,4.1-2.9c2,0,3.2,0.9,4,2.9c0.8-2,2.5-2.9,4.3-2.9c1.3,0,2.7,0.5,3.6,1.8c1,1.3,0.8,3.2,0.8,4.9v9.9
  c0,0.3-0.3,0.6-0.6,0.6h-3.1c-0.3,0-0.5-0.3-0.5-0.6v-8.3c0-0.7,0.1-2.3-0.1-2.9c-0.2-1-0.9-1.3-1.7-1.3c-0.7,0-1.5,0.5-1.8,1.3
  c-0.3,0.8-0.2,2.1-0.2,2.9v8.3c0,0.3-0.3,0.6-0.6,0.6h-3.1c-0.3,0-0.6-0.3-0.6-0.6v-8.3c0-1.8,0.3-4.5-2-4.5
  c-2.3,0-2.2,2.6-2.2,4.5v8.3C13,23.1,12.7,23.4,12.4,23.4z"/>
</svg> 