<svg xmlns="http://www.w3.org/2000/svg" viewBox="0 0 120 40" width="120" height="40">
  <!-- Simplified Google Logo -->
  <path fill="#4285F4" d="M48.4,20.3c0-0.6-0.1-1.2-0.2-1.8H35.5v3.4h7.2c-0.3,1.6-1.2,3-2.6,3.9v3.3h4.2C46.9,26.5,48.4,23.6,48.4,20.3z"/>
  <path fill="#34A853" d="M35.5,29.9c3.5,0,6.4-1.2,8.6-3.1l-4.2-3.3c-1.1,0.8-2.6,1.2-4.4,1.2c-3.4,0-6.2-2.3-7.2-5.3h-4.3v3.4C26.2,27.2,30.5,29.9,35.5,29.9z"/>
  <path fill="#FBBC05" d="M28.3,19.4c-0.3-0.8-0.4-1.6-0.4-2.4c0-0.8,0.2-1.6,0.4-2.4v-3.4h-4.3c-0.9,1.7-1.4,3.7-1.4,5.8s0.5,4.1,1.4,5.8L28.3,19.4z"/>
  <path fill="#EA4335" d="M35.5,11.7c1.9,0,3.6,0.7,4.9,2l3.7-3.7c-2.3-2.1-5.3-3.4-8.6-3.4c-5,0-9.3,2.8-11.5,7.1l4.3,3.4C29.3,14,31.1,11.7,35.5,11.7z"/>
  <path fill="#757575" d="M67,20.4c0-5.5-3.8-9.5-8.5-9.5c-4.7,0-8.4,4-8.4,9.5c0,5.4,3.8,9.5,8.5,9.5C63.3,29.9,67,25.9,67,20.4z M63,20.4c0,3.5-2.1,5.9-4.5,5.9c-2.4,0-4.5-2.4-4.5-5.9c0-3.5,2.1-5.9,4.5-5.9C60.9,14.5,63,16.9,63,20.4z"/>
  <path fill="#757575" d="M84.8,20.4c0-5.5-3.8-9.5-8.5-9.5c-4.7,0-8.4,4-8.4,9.5c0,5.4,3.8,9.5,8.5,9.5C81,29.9,84.8,25.9,84.8,20.4z M80.8,20.4c0,3.5-2.1,5.9-4.5,5.9c-2.4,0-4.5-2.4-4.5-5.9c0-3.5,2.1-5.9,4.5-5.9C78.7,14.5,80.8,16.9,80.8,20.4z"/>
  <path fill="#757575" d="M101.6,11.5v17.2c0,7-4.1,9.9-9,9.9c-4.6,0-7.4-3.1-8.4-5.6l3.6-1.5c0.6,1.5,2.2,3.3,4.8,3.3c3.1,0,5.1-2,5.1-5.5v-1.4h-0.1c-0.9,1.2-2.7,2.2-4.9,2.2c-4.7,0-9-4.1-9-9.4c0-5.4,4.3-9.5,9-9.5c2.2,0,4,1,4.9,2.1h0.1v-1.5H101.6z M97.8,20.3c0-3.3-2.2-5.8-5-5.8c-2.8,0-5.2,2.4-5.2,5.8c0,3.3,2.3,5.7,5.2,5.7C95.6,26,97.8,23.7,97.8,20.3z"/>
</svg> 