<svg xmlns="http://www.w3.org/2000/svg" viewBox="0 0 120 40" width="120" height="40">
  <!-- Simplified IBM Logo -->
  <path fill="#1F70C1" d="M10,13h100v2.5H10V13z"/>
  <path fill="#1F70C1" d="M10,18.8h100v2.5H10V18.8z"/>
  <path fill="#1F70C1" d="M10,24.6h100v2.5H10V24.6z"/>
  <path fill="#1F70C1" d="M35.8,13v14h8.3v-2.5h-5.8v-3.3h5.8v-2.5h-5.8v-3.3h5.8V13H35.8z"/>
  <path fill="#1F70C1" d="M47.5,13v14h5c1.7,0,6.7,0,6.7-7c0-6.9-5-7-6.7-7H47.5z M53.3,24.6h-3.3v-9.1h3.3c1.7,0,3.3,1.6,3.3,4.6C56.6,23,55,24.6,53.3,24.6z"/>
  <path fill="#1F70C1" d="M63.3,13v14h2.5v-5.8h1.7l3.3,5.8h3.1l-3.8-6.5c1.9-0.4,3.3-1.9,3.3-4.3c0-3.1-2.5-4.2-5-4.2H63.3z M65.8,18.8v-3.3h2.9c1.2,0,2.1,0.6,2.1,1.7c0,1-0.8,1.7-2.1,1.7H65.8z"/>
</svg> 