<svg xmlns="http://www.w3.org/2000/svg" viewBox="0 0 120 40" width="120" height="40">
  <!-- Simplified Oracle Logo -->
  <rect x="10" y="13" width="100" height="14" rx="7" ry="7" fill="#C74634"/>
  <path fill="#FFFFFF" d="M27.5,22.8h-3c-0.8,0-1.5-0.7-1.5-1.5v-2.5c0-0.8,0.7-1.5,1.5-1.5h3c0.8,0,1.5,0.7,1.5,1.5v2.5C29,22.1,28.3,22.8,27.5,22.8z"/>
  <path fill="#FFFFFF" d="M37.3,22.8h-2.6c-0.8,0-1.5-0.7-1.5-1.5v-2.5c0-0.8,0.7-1.5,1.5-1.5h2.6c2.2,0,4,1.2,4,2.8C41.3,21.6,39.5,22.8,37.3,22.8z"/>
  <path fill="#FFFFFF" d="M47.6,22.8h-1.4l-2.8-5.5h2.8l1.4,3.1l1.4-3.1h2.8L47.6,22.8z"/>
  <path fill="#FFFFFF" d="M58.8,22.8h-5.4v-5.5h2.5v3.3h2.9V22.8z"/>
  <path fill="#FFFFFF" d="M65.8,19.9h-2v0.7h2.2v2.2h-4.7v-5.5h4.7v2.2h-2.2V19.9z"/>
  <path fill="#FFFFFF" d="M77.1,22.8h-2.6v-5.5h2.6c2.2,0,4,1.2,4,2.8S79.3,22.8,77.1,22.8z M77,19.6h-0.1v1h0.1c0.3,0,0.6-0.2,0.6-0.5C77.6,19.8,77.3,19.6,77,19.6z"/>
  <path fill="#FFFFFF" d="M90,22.8h-6.1v-5.5h2.5v3.3h1.2v-3.3h2.5V22.8z"/>
  <path fill="#FFFFFF" d="M97.7,22.8h-5.4v-5.5h5.4v2.2h-2.9v0.5h2.8v2h-2.8v0.8H97.7z"/>
</svg> 