<svg xmlns="http://www.w3.org/2000/svg" viewBox="0 0 120 40" width="120" height="40">
  <!-- Simplified Samsung Logo -->
  <path fill="#1428A0" d="M102.4,25.9h4.4c0.5,0,0.9-0.4,0.9-0.9V15c0-0.5-0.4-0.9-0.9-0.9h-4.4c-0.5,0-0.9,0.4-0.9,0.9v10C101.5,25.5,101.9,25.9,102.4,25.9z"/>
  <path fill="#1428A0" d="M89.9,25.9h4.3c0.5,0,0.9-0.4,0.9-0.9v-4.8l3.9,5.3c0.2,0.2,0.5,0.4,0.8,0.4h4.6c0.7,0,1.1-0.9,0.6-1.5L100,17.8l4.3-3.2c0.5-0.4,0.3-1.2-0.4-1.4h-3.3c-0.2,0-0.4,0.1-0.6,0.2l-4.1,3.3V15c0-0.5-0.4-0.9-0.9-0.9h-4.3c-0.5,0-0.9,0.4-0.9,0.9v10C89,25.5,89.4,25.9,89.9,25.9z"/>
  <path fill="#1428A0" d="M77.3,25.9h4.4c0.5,0,0.9-0.4,0.9-0.9v-3.9c0-0.2,0.2-0.4,0.4-0.4h3.1c0.5,0,0.9-0.4,0.9-0.9v-2.5c0-0.5-0.4-0.9-0.9-0.9h-3.1c-0.2,0-0.4-0.2-0.4-0.4V15c0-0.5-0.4-0.9-0.9-0.9h-4.4c-0.5,0-0.9,0.4-0.9,0.9v10C76.4,25.5,76.8,25.9,77.3,25.9z"/>
  <path fill="#1428A0" d="M64.7,25.9h4.4c0.5,0,0.9-0.4,0.9-0.9V21c0-0.2,0.2-0.4,0.4-0.4h2.2c2.5,0,4.5-2,4.5-4.5v-1.1c0-2.5-2-4.5-4.5-4.5h-7.9c-0.5,0-0.9,0.4-0.9,0.9v13.6C63.8,25.5,64.2,25.9,64.7,25.9z M69.9,16.1h1.8c0.3,0,0.6,0.3,0.6,0.6c0,0.3-0.3,0.6-0.6,0.6h-1.8c-0.3,0-0.5-0.2-0.5-0.5v-0.1C69.4,16.3,69.6,16.1,69.9,16.1z"/>
  <path fill="#1428A0" d="M49.6,25.9H54c0.5,0,0.9-0.4,0.9-0.9V21c0-0.2,0.2-0.4,0.4-0.4h2.2c2.5,0,4.5-2,4.5-4.5v-1.1c0-2.5-2-4.5-4.5-4.5h-7.9c-0.5,0-0.9,0.4-0.9,0.9v13.6C48.7,25.5,49.1,25.9,49.6,25.9z M54.8,16.1h1.8c0.3,0,0.6,0.3,0.6,0.6c0,0.3-0.3,0.6-0.6,0.6h-1.8c-0.3,0-0.5-0.2-0.5-0.5v-0.1C54.3,16.3,54.5,16.1,54.8,16.1z"/>
  <path fill="#1428A0" d="M36.4,26.1h4.9c0.4,0,0.8-0.2,0.9-0.6l3.2-9.2c0.2-0.6-0.2-1.2-0.9-1.2h-4.3c-0.4,0-0.7,0.2-0.9,0.6l-0.6,2.1c-0.1,0.3-0.5,0.3-0.6,0l-0.6-2.1c-0.1-0.4-0.5-0.6-0.9-0.6h-4.3c-0.6,0-1.1,0.6-0.9,1.2l3.2,9.2C35.6,25.9,36,26.1,36.4,26.1z"/>
  <path fill="#1428A0" d="M23,26.1h4.4c0.5,0,0.9-0.4,0.9-0.9V15c0-0.5-0.4-0.9-0.9-0.9H23c-0.5,0-0.9,0.4-0.9,0.9v10.2C22.1,25.7,22.5,26.1,23,26.1z"/>
  <path fill="#1428A0" d="M10.5,26.1h4.4c0.4,0,0.8-0.3,0.9-0.7l0.8-3.8c0.1-0.2,0.3-0.4,0.5-0.4h0.5c0.2,0,0.5,0.2,0.5,0.4l0.8,3.8c0.1,0.4,0.5,0.7,0.9,0.7h4.4c0.6,0,1.1-0.5,0.9-1.1l-1.3-5.2c-0.1-0.2,0-0.5,0.1-0.7c1.3-1.2,2-2.9,2-4.6c0-3.5-2.8-6.3-6.3-6.3h-8.6c-0.5,0-0.9,0.4-0.9,0.9v15.9C9.6,25.7,10,26.1,10.5,26.1z M14.9,13.7h2.5c0.7,0,1.2,0.5,1.2,1.2c0,0.7-0.5,1.2-1.2,1.2h-2.5c-0.3,0-0.5-0.2-0.5-0.5v-1.5C14.4,13.9,14.6,13.7,14.9,13.7z"/>
</svg> 