<svg width="64" height="64" viewBox="0 0 64 64" xmlns="http://www.w3.org/2000/svg">
  <!-- Fondo del icono -->
  <circle cx="32" cy="32" r="30" fill="#EB4B37" opacity="0.1"/>
  
  <!-- Logo de MOZ estilizado -->
  <path d="M18,18 L18,46 L24,46 L24,28 L32,40 L40,28 L40,46 L46,46 L46,18 L38,18 L32,28 L26,18 Z" 
        fill="#EB4B37"/>
  
  <!-- Elementos decorativos -->
  <circle cx="14" cy="22" r="2" fill="#EB4B37" opacity="0.5"/>
  <circle cx="50" cy="22" r="2" fill="#EB4B37" opacity="0.5"/>
  <circle cx="14" cy="42" r="2" fill="#EB4B37" opacity="0.5"/>
  <circle cx="50" cy="42" r="2" fill="#EB4B37" opacity="0.5"/>
  
  <!-- Elementos relacionados con SEO -->
  <path d="M14,50 C18,54 24,56 32,56 C40,56 46,54 50,50" 
        fill="none" stroke="#EB4B37" stroke-width="1.5" stroke-linecap="round" opacity="0.7"/>
  
  <!-- Indicador de ranking -->
  <path d="M10,34 L10,30 L14,30 L14,34 Z" fill="#EB4B37" opacity="0.7"/>
  <path d="M10,26 L10,22 L14,22 L14,26 Z" fill="#EB4B37" opacity="0.7"/>
  <path d="M50,34 L50,30 L54,30 L54,34 Z" fill="#EB4B37" opacity="0.7"/>
  <path d="M50,26 L50,22 L54,22 L54,26 Z" fill="#EB4B37" opacity="0.7"/>
</svg> 