<svg width="64" height="64" viewBox="0 0 64 64" xmlns="http://www.w3.org/2000/svg">
  <!-- Fondo del icono -->
  <circle cx="32" cy="32" r="30" fill="#4CAF50" opacity="0.1"/>
  
  <!-- Velocímetro / Medidor de velocidad -->
  <circle cx="32" cy="32" r="22" fill="none" stroke="#4CAF50" stroke-width="2"/>
  
  <!-- Arcos de rendimiento -->
  <path d="M32,10 A22,22 0 0,1 54,32" fill="none" stroke="#F44336" stroke-width="4" opacity="0.7"/>
  <path d="M54,32 A22,22 0 0,1 32,54" fill="none" stroke="#FFC107" stroke-width="4" opacity="0.7"/>
  <path d="M32,54 A22,22 0 0,1 10,32" fill="none" stroke="#4CAF50" stroke-width="4" opacity="0.7"/>
  
  <!-- Aguja del velocímetro -->
  <line x1="32" y1="32" x2="20" y2="44" stroke="#333333" stroke-width="2" stroke-linecap="round"/>
  <circle cx="32" cy="32" r="4" fill="#333333"/>
  <circle cx="32" cy="32" r="2" fill="white"/>
  
  <!-- Indicadores de velocidad -->
  <circle cx="17" cy="17" r="2" fill="#4CAF50"/>
  <circle cx="47" cy="17" r="2" fill="#4CAF50"/>
  <circle cx="17" cy="47" r="2" fill="#4CAF50"/>
  <circle cx="47" cy="47" r="2" fill="#4CAF50"/>
  
  <!-- Rayos de velocidad -->
  <path d="M26,26 L20,20" stroke="#4CAF50" stroke-width="2" stroke-linecap="round"/>
  <path d="M38,26 L44,20" stroke="#4CAF50" stroke-width="2" stroke-linecap="round"/>
  <path d="M26,38 L20,44" stroke="#4CAF50" stroke-width="2" stroke-linecap="round"/>
  <path d="M38,38 L44,44" stroke="#4CAF50" stroke-width="2" stroke-linecap="round"/>
  
  <!-- Marca PageSpeed -->
  <text x="32" y="60" font-family="Arial" font-size="6" fill="#333333" text-anchor="middle">PageSpeed</text>
</svg> 