<svg width="64" height="64" viewBox="0 0 64 64" xmlns="http://www.w3.org/2000/svg">
  <!-- Fondo del icono -->
  <circle cx="32" cy="32" r="30" fill="#3CB14A" opacity="0.1"/>
  
  <!-- Cuerpo estilizado de la rana -->
  <ellipse cx="32" cy="35" rx="20" ry="15" fill="#3CB14A" opacity="0.8"/>
  
  <!-- Patas de la rana -->
  <path d="M16,35 C12,38 10,45 14,47 C18,49 18,41 19,39" fill="#3CB14A"/>
  <path d="M48,35 C52,38 54,45 50,47 C46,49 46,41 45,39" fill="#3CB14A"/>
  
  <!-- Ojos de la rana -->
  <circle cx="24" cy="28" r="5" fill="white"/>
  <circle cx="40" cy="28" r="5" fill="white"/>
  <circle cx="24" cy="28" r="2" fill="black"/>
  <circle cx="40" cy="28" r="2" fill="black"/>
  
  <!-- Boca "gritando" -->
  <path d="M27,34 C30,38 34,38 37,34" fill="none" stroke="white" stroke-width="2" stroke-linecap="round"/>
  
  <!-- Elementos relacionados con SEO -->
  <path d="M4,50 L60,50" fill="none" stroke="#3CB14A" stroke-width="1" stroke-dasharray="2,1"/>
  <path d="M4,54 L60,54" fill="none" stroke="#3CB14A" stroke-width="1" stroke-dasharray="2,1"/>
  <path d="M4,58 L60,58" fill="none" stroke="#3CB14A" stroke-width="1" stroke-dasharray="2,1"/>
  
  <!-- Icono de araña -->
  <circle cx="53" cy="14" r="4" fill="#3CB14A"/>
  <line x1="53" y1="10" x2="53" y2="8" stroke="#3CB14A" stroke-width="1"/>
  <line x1="49" y1="12" x2="47" y2="10" stroke="#3CB14A" stroke-width="1"/>
  <line x1="49" y1="16" x2="47" y2="18" stroke="#3CB14A" stroke-width="1"/>
  <line x1="53" y1="18" x2="53" y2="20" stroke="#3CB14A" stroke-width="1"/>
  <line x1="57" y1="16" x2="59" y2="18" stroke="#3CB14A" stroke-width="1"/>
  <line x1="57" y1="12" x2="59" y2="10" stroke="#3CB14A" stroke-width="1"/>
</svg> 