<svg width="64" height="64" viewBox="0 0 64 64" xmlns="http://www.w3.org/2000/svg">
  <path d="M32 15.6c-5.333 0-8.667 2.667-10 8 2-2.667 4.333-3.667 7-3 1.527.383 2.623 1.494 3.83 2.724C34.74 25.265 37.067 27.6 42 27.6c5.333 0 8.667-2.667 10-8-2 2.667-4.333 3.667-7 3-1.527-.383-2.623-1.494-3.83-2.724C39.26 17.935 36.933 15.6 32 15.6zm-10 20c-5.333 0-8.667 2.667-10 8 2-2.667 4.333-3.667 7-3 1.527.383 2.623 1.494 3.83 2.724C24.74 45.265 27.067 47.6 32 47.6c5.333 0 8.667-2.667 10-8-2 2.667-4.333 3.667-7 3-1.527-.383-2.623-1.494-3.83-2.724C29.26 37.935 26.933 35.6 22 35.6z" fill="#06B6D4"/>
</svg> 