<svg xmlns="http://www.w3.org/2000/svg" viewBox="0 0 512 512">
  <rect width="512" height="512" fill="#F7DF1E" rx="50" ry="50"/>
  <path d="M324.4,370c10.2,16.4,23.9,28.4,47.8,28.4c20,0,32.8-9.8,32.8-23.4c0-16.3-13-22-34.8-31.4l-11.9-5.1c-34.5-14.7-57.4-33-57.4-71.9c0-35.7,27.3-63,70-63c30.3,0,52.2,10.5,67.9,38.3l-37.2,23.8c-8.2-14.6-17-20.3-30.7-20.3c-14,0-22.9,8.8-22.9,20.3c0,14.2,8.9,20,29.4,28.8l11.9,5.1c40.6,17.4,63.5,35.1,63.5,75.1c0,42.9-33.9,66.5-79.3,66.5c-44.6,0-73.3-21.2-87.6-48.8L324.4,370z M180.3,374.3c7.5,13.3,14.3,24.4,30.7,24.4c15.7,0,25.6-6.1,25.6-29.8V203h49.8v166.5c0,51.6-30.2,75.1-74.3,75.1c-39.8,0-62.9-20.6-74.6-45.4L180.3,374.3z"/>
</svg> 