<svg xmlns="http://www.w3.org/2000/svg" fill="none" viewBox="0 0 24 24" width="24" height="24">
  <path d="M9 12C9 10.3431 10.3431 9 12 9C13.6569 9 15 10.3431 15 12C15 13.6569 13.6569 15 12 15C10.3431 15 9 13.6569 9 12Z" stroke="#1a83e4" stroke-width="1.5" stroke-linecap="round" stroke-linejoin="round" />
  <path d="M9 3H12C13.6569 3 15 4.34315 15 6C15 7.65685 13.6569 9 12 9H9V3Z" stroke="#1a83e4" stroke-width="1.5" stroke-linecap="round" stroke-linejoin="round" />
  <path d="M9 15H12C13.6569 15 15 16.3431 15 18C15 19.6569 13.6569 21 12 21C10.3431 21 9 19.6569 9 18V15Z" stroke="#1a83e4" stroke-width="1.5" stroke-linecap="round" stroke-linejoin="round" />
  <path d="M5.5 6C5.5 4.34315 6.84315 3 8.5 3H9V9H8.5C6.84315 9 5.5 7.65685 5.5 6Z" stroke="#1a83e4" stroke-width="1.5" stroke-linecap="round" stroke-linejoin="round" />
  <path d="M5.5 12C5.5 10.3431 6.84315 9 8.5 9H9V15H8.5C6.84315 15 5.5 13.6569 5.5 12Z" stroke="#1a83e4" stroke-width="1.5" stroke-linecap="round" stroke-linejoin="round" />
</svg> 