<svg width="100" height="100" xmlns="http://www.w3.org/2000/svg">
  <defs>
    <pattern id="data-pattern" width="100" height="100" patternUnits="userSpaceOnUse">
      <!-- Cuadrícula de datos -->
      <rect x="0" y="0" width="100" height="100" fill="none" stroke="#ffffff" stroke-width="0.5" opacity="0.02"/>
      <rect x="25" y="25" width="50" height="50" fill="none" stroke="#ffffff" stroke-width="0.5" opacity="0.03"/>
      
      <!-- Puntos para representar nodos de datos -->
      <circle cx="10" cy="10" r="1.5" fill="#ffffff" opacity="0.1"/>
      <circle cx="10" cy="25" r="1.5" fill="#ffffff" opacity="0.1"/>
      <circle cx="10" cy="40" r="1.5" fill="#ffffff" opacity="0.1"/>
      <circle cx="10" cy="55" r="1.5" fill="#ffffff" opacity="0.1"/>
      <circle cx="10" cy="70" r="1.5" fill="#ffffff" opacity="0.1"/>
      <circle cx="10" cy="85" r="1.5" fill="#ffffff" opacity="0.1"/>
      
      <circle cx="25" cy="10" r="1.5" fill="#ffffff" opacity="0.1"/>
      <circle cx="25" cy="25" r="1.5" fill="#ffffff" opacity="0.1"/>
      <circle cx="25" cy="40" r="1.5" fill="#ffffff" opacity="0.1"/>
      <circle cx="25" cy="55" r="1.5" fill="#ffffff" opacity="0.1"/>
      <circle cx="25" cy="70" r="1.5" fill="#ffffff" opacity="0.1"/>
      <circle cx="25" cy="85" r="1.5" fill="#ffffff" opacity="0.1"/>
      
      <circle cx="40" cy="10" r="1.5" fill="#ffffff" opacity="0.1"/>
      <circle cx="40" cy="25" r="1.5" fill="#ffffff" opacity="0.1"/>
      <circle cx="40" cy="40" r="1.5" fill="#ffffff" opacity="0.1"/>
      <circle cx="40" cy="55" r="1.5" fill="#ffffff" opacity="0.1"/>
      <circle cx="40" cy="70" r="1.5" fill="#ffffff" opacity="0.1"/>
      <circle cx="40" cy="85" r="1.5" fill="#ffffff" opacity="0.1"/>
      
      <circle cx="55" cy="10" r="1.5" fill="#ffffff" opacity="0.1"/>
      <circle cx="55" cy="25" r="1.5" fill="#ffffff" opacity="0.1"/>
      <circle cx="55" cy="40" r="1.5" fill="#ffffff" opacity="0.1"/>
      <circle cx="55" cy="55" r="1.5" fill="#ffffff" opacity="0.1"/>
      <circle cx="55" cy="70" r="1.5" fill="#ffffff" opacity="0.1"/>
      <circle cx="55" cy="85" r="1.5" fill="#ffffff" opacity="0.1"/>
      
      <circle cx="70" cy="10" r="1.5" fill="#ffffff" opacity="0.1"/>
      <circle cx="70" cy="25" r="1.5" fill="#ffffff" opacity="0.1"/>
      <circle cx="70" cy="40" r="1.5" fill="#ffffff" opacity="0.1"/>
      <circle cx="70" cy="55" r="1.5" fill="#ffffff" opacity="0.1"/>
      <circle cx="70" cy="70" r="1.5" fill="#ffffff" opacity="0.1"/>
      <circle cx="70" cy="85" r="1.5" fill="#ffffff" opacity="0.1"/>
      
      <circle cx="85" cy="10" r="1.5" fill="#ffffff" opacity="0.1"/>
      <circle cx="85" cy="25" r="1.5" fill="#ffffff" opacity="0.1"/>
      <circle cx="85" cy="40" r="1.5" fill="#ffffff" opacity="0.1"/>
      <circle cx="85" cy="55" r="1.5" fill="#ffffff" opacity="0.1"/>
      <circle cx="85" cy="70" r="1.5" fill="#ffffff" opacity="0.1"/>
      <circle cx="85" cy="85" r="1.5" fill="#ffffff" opacity="0.1"/>
      
      <!-- Conectores -->
      <line x1="10" y1="10" x2="25" y2="25" stroke="#ffffff" stroke-width="0.5" opacity="0.05"/>
      <line x1="25" y1="25" x2="40" y2="10" stroke="#ffffff" stroke-width="0.5" opacity="0.05"/>
      <line x1="40" y1="10" x2="55" y2="25" stroke="#ffffff" stroke-width="0.5" opacity="0.05"/>
      <line x1="55" y1="25" x2="70" y2="10" stroke="#ffffff" stroke-width="0.5" opacity="0.05"/>
      
      <line x1="10" y1="40" x2="25" y2="55" stroke="#ffffff" stroke-width="0.5" opacity="0.05"/>
      <line x1="25" y1="55" x2="40" y2="70" stroke="#ffffff" stroke-width="0.5" opacity="0.05"/>
      <line x1="40" y1="70" x2="55" y2="55" stroke="#ffffff" stroke-width="0.5" opacity="0.05"/>
      <line x1="55" y1="55" x2="70" y2="70" stroke="#ffffff" stroke-width="0.5" opacity="0.05"/>
      
      <line x1="70" y1="70" x2="85" y2="85" stroke="#ffffff" stroke-width="0.5" opacity="0.05"/>
      <line x1="10" y1="85" x2="25" y2="70" stroke="#ffffff" stroke-width="0.5" opacity="0.05"/>
    </pattern>
  </defs>
  
  <rect width="100" height="100" fill="url(#data-pattern)"/>
</svg> 