<svg xmlns="http://www.w3.org/2000/svg" viewBox="0 0 24 24" fill="none" stroke="currentColor" stroke-width="2" stroke-linecap="round" stroke-linejoin="round">
  <circle cx="12" cy="12" r="1"></circle>
  <path d="M12 12c-1.95 2.4-4.2 4-5.5 4-1.74 0-2.5-1.46-2.5-3.5 0-3.12 2.5-7.5 5-9.5C10.5 1.94 11.64 2 12 2c1.74 0 2.5 1.46 2.5 3.5 0 3.12-2.5 7.5-5 9.5-1.5 1.06-2.64 1-3 1"></path>
  <path d="M12 12c1.95 2.4 4.2 4 5.5 4 1.74 0 2.5-1.46 2.5-3.5 0-3.12-2.5-7.5-5-9.5C13.5 1.94 12.36 2 12 2c-1.74 0-2.5 1.46-2.5 3.5 0 3.12 2.5 7.5 5 9.5 1.5 1.06 2.64 1 3 1"></path>
</svg> 