<svg version="1" xmlns="http://www.w3.org/2000/svg" width="2000" height="2000" viewBox="0 0 1500.000000 1500.000000"><path d="M0 750v750h1500V0H0v750zm1398 0v653H102V97h1296v653z"/><path d="M150 750v599h1200V151H150v599zm359 2.5V1083l-47.2-.2-47.3-.3-.3-330.3L414 422h95v330.5zm581-300.2v27.3l-70.1 99.5c-38.6 54.7-76.2 107.9-83.6 118.4l-13.4 19 83.6.3 83.5.2v71H869.5l-70.2 110.3-70.1 110.2 180.4.9 180.4.9V1080H613v-44.2l84-123.6 83.9-123.7-62-.3-61.9-.2.2-35.3.3-35.2 48.2-.5 48.2-.5-57.5-110.8L639 494.9v-34.3c0-18.8.3-34.6.7-34.9.3-.4 101.8-.7 225.5-.7H1090v27.3z"/><path d="M739.5 501.2c73.6 161.6 93.6 205.3 94.3 206 .5.5 7-8.4 14.9-20.4 7.7-11.7 39.2-59.4 70.1-106.1l56.1-84.7H737.1l2.4 5.2z"/></svg>