<svg width="64" height="64" viewBox="0 0 64 64" xmlns="http://www.w3.org/2000/svg">
  <!-- Fondo del icono -->
  <circle cx="32" cy="32" r="30" fill="#1a83e4" opacity="0.1"/>
  
  <!-- Marcador de ubicación -->
  <path d="M32,10 C25.6,10 20,15.6 20,22 C20,30 32,46 32,46 C32,46 44,30 44,22 C44,15.6 38.4,10 32,10 Z" 
        fill="none" stroke="#1a83e4" stroke-width="2"/>
  
  <!-- Círculo central del marcador -->
  <circle cx="32" cy="22" r="5" fill="none" stroke="#1a83e4" stroke-width="2"/>
  
  <!-- Elementos de búsqueda local -->
  <rect x="14" y="48" width="36" height="8" rx="2" fill="none" stroke="#1a83e4" stroke-width="2"/>
  
  <!-- Texto de búsqueda local -->
  <text x="32" y="54" font-family="Arial" font-size="6" fill="#1a83e4" text-anchor="middle">BUSCAR CERCA</text>
  
  <!-- Líneas de conexión -->
  <path d="M18,42 C12,35 14,30 14,30" fill="none" stroke="#1a83e4" stroke-width="1.5" stroke-linecap="round" stroke-dasharray="2,2"/>
  <path d="M46,42 C52,35 50,30 50,30" fill="none" stroke="#1a83e4" stroke-width="1.5" stroke-linecap="round" stroke-dasharray="2,2"/>
  
  <!-- Edificios pequeños alrededor -->
  <rect x="10" y="30" width="6" height="8" fill="none" stroke="#1a83e4" stroke-width="1.5"/>
  <rect x="48" y="30" width="6" height="8" fill="none" stroke="#1a83e4" stroke-width="1.5"/>
  <rect x="14" y="36" width="8" height="6" fill="none" stroke="#1a83e4" stroke-width="1.5"/>
  <rect x="42" y="36" width="8" height="6" fill="none" stroke="#1a83e4" stroke-width="1.5"/>
</svg> 