<?xml version="1.0" encoding="UTF-8"?>
<svg width="256px" height="256px" viewBox="0 0 256 256" version="1.1" xmlns="http://www.w3.org/2000/svg">
    <path d="M127.8,0 C62.4,0 66.3,28.1 66.3,28.1 L66.4,57.5 L128.7,57.5 L128.7,66.2 L41.8,66.2 C41.8,66.2 0,61.2 0,128.1 C0,195 41.8,190.9 41.8,190.9 L62.7,190.9 L62.7,160.7 C62.7,160.7 61.5,119 104.3,119 L165.9,119 C165.9,119 205.4,119.8 205.4,80.5 L205.4,34.2 C205.4,34.2 211.5,0 127.8,0 Z M94.9,20.2 C100.6,20.2 105.2,24.8 105.2,30.5 C105.2,36.2 100.6,40.8 94.9,40.8 C89.2,40.8 84.6,36.2 84.6,30.5 C84.6,24.8 89.2,20.2 94.9,20.2 Z" fill="#3776AB"/>
    <path d="M128.2,256 C193.6,256 189.7,227.9 189.7,227.9 L189.6,198.5 L127.3,198.5 L127.3,189.8 L214.2,189.8 C214.2,189.8 256,194.8 256,127.9 C256,61 214.2,65.1 214.2,65.1 L193.3,65.1 L193.3,95.3 C193.3,95.3 194.5,137 151.7,137 L90.1,137 C90.1,137 50.6,136.2 50.6,175.5 L50.6,221.8 C50.6,221.8 44.5,256 128.2,256 Z M161.1,235.8 C155.4,235.8 150.8,231.2 150.8,225.5 C150.8,219.8 155.4,215.2 161.1,215.2 C166.8,215.2 171.4,219.8 171.4,225.5 C171.4,231.2 166.8,235.8 161.1,235.8 Z" fill="#FFD43B"/>
</svg> 