<svg xmlns="http://www.w3.org/2000/svg" viewBox="0 0 24 24" fill="#7AB55C">
  <path d="M15.337 3.5c-.08-.487-.292-.87-.638-1.149-.346-.279-1.123-.6-1.123-.6s-.921-1.206-1.326-1.644c-.405-.439-1.125-.263-1.125-.263L10.976 0c-.32.798-.525 1.39-.584 1.7-.292.06-.584.146-.876.233-.088.027-2.193.673-2.193.673S5.145 5.251 4.845 5.85c-.301.6-.301.819-.301.819l-1.59 12.377h12.517L17.73 6.67s-.292-1.76-1.167-2.486c-.292-.214-.759-.487-1.226-.683zm-3.286-.556c-.292.087-.584.175-.876.262.175-.437.35-.885.525-1.322.496.107.818.214.818.214s-.175.35-.467.846z"/>
  <path d="M12.05 2.944c-.292.087-.584.175-.876.262.175-.437.35-.885.525-1.322.496.107.818.214.818.214s-.175.35-.467.846z" fill="#fff"/>
  <path d="M10.06 8.384s-.496-.262-1.08-.262c-.905 0-.934.555-.934.7 0 .758 2.014 1.053 2.014 2.807 0 1.382-.905 2.28-2.102 2.28-.934 0-1.755-.35-1.755-.35l.321-1.032s.613.292 1.138.292c.35 0 .496-.292.496-.496 0-.846-1.638-1.149-1.638-2.895 0-1.498 1.08-2.895 3.211-2.895.846 0 1.255.233 1.255.233l-.926 1.618zM10.1 5.705l-.73 2.222s-.642-.35-1.43-.35c-1.167 0-1.225 1.032-1.225 1.265 0 1.382 3.474 1.615 3.474 4.335 0 2.144-1.372 3.536-3.24 3.536-2.222 0-3.357-1.382-3.357-1.382l.584-1.964s1.167 1.032 2.16 1.032c.642 0 .905-.525.905-.905 0-1.59-2.865-1.498-2.865-3.884 0-2.002 1.43-3.943 4.296-3.943 1.109 0 1.68.292 1.68.292l-.292.746z" fill="#fff"/>
</svg> 